<svg width="175" height="53" viewBox="0 0 175 53" fill="none" xmlns="http://www.w3.org/2000/svg">
<g filter="url(#filter0_d_6_154)">
<rect x="2" y="1" width="171" height="49" rx="24.5" fill="#9138FF"/>
<path d="M26.9682 33.1269C26.9682 33.9038 27.6023 34.538 28.3826 34.538H29.9996V38.5356C29.9996 39.5483 30.8131 40.3751 31.8125 40.3751C32.8152 40.3751 33.6254 39.5517 33.6254 38.5356V34.5347H36.4477V38.5323C36.4477 39.545 37.2611 40.3718 38.2605 40.3718C39.2633 40.3718 40.0734 39.5483 40.0734 38.5323V34.5347H41.6904C42.4707 34.5347 43.1049 33.9005 43.1049 33.1235V20.0017H26.9682V33.1269ZM38.825 13.2017L40.3158 11.0435C40.4021 10.9173 40.3822 10.748 40.266 10.6649C40.1498 10.5853 39.9838 10.6251 39.8975 10.7513L38.3502 12.9958C37.3309 12.594 36.1953 12.3716 35.0033 12.3716C33.8113 12.3716 32.6758 12.594 31.6564 12.9958L30.1092 10.7546C30.0229 10.6284 29.8568 10.5853 29.7406 10.6683C29.6244 10.748 29.6045 10.914 29.6908 11.0468L31.1816 13.205C28.8109 14.3073 27.1508 16.3958 26.9383 18.8362H43.075C42.8559 16.3925 41.1924 14.304 38.825 13.2017ZM31.5967 16.605C31.42 16.605 31.2473 16.5526 31.1005 16.4545C30.9536 16.3563 30.8391 16.2168 30.7715 16.0536C30.7039 15.8904 30.6862 15.7108 30.7207 15.5376C30.7551 15.3643 30.8402 15.2052 30.9651 15.0803C31.09 14.9553 31.2492 14.8703 31.4224 14.8358C31.5957 14.8014 31.7753 14.819 31.9385 14.8866C32.1017 14.9542 32.2412 15.0687 32.3393 15.2156C32.4375 15.3625 32.4898 15.5352 32.4898 15.7118C32.4892 15.9485 32.3949 16.1753 32.2276 16.3427C32.0602 16.5101 31.8334 16.6044 31.5967 16.605ZM38.5162 16.605C38.3396 16.605 38.1669 16.5526 38.02 16.4545C37.8731 16.3563 37.7586 16.2168 37.691 16.0536C37.6234 15.8904 37.6057 15.7108 37.6402 15.5376C37.6747 15.3643 37.7597 15.2052 37.8846 15.0803C38.0096 14.9553 38.1687 14.8703 38.342 14.8358C38.5152 14.8014 38.6948 14.819 38.858 14.8866C39.0212 14.9542 39.1607 15.0687 39.2588 15.2156C39.357 15.3625 39.4094 15.5352 39.4094 15.7118C39.4088 15.9485 39.3145 16.1753 39.1471 16.3427C38.9797 16.5101 38.7529 16.6044 38.5162 16.605ZM45.9338 19.9485C44.9311 19.9485 44.1209 20.772 44.1209 21.788V28.9731C44.1209 29.9858 44.9344 30.8126 45.9338 30.8126C46.9365 30.8126 47.7467 29.9892 47.7467 28.9731V21.7847C47.75 20.7687 46.9398 19.9485 45.9338 19.9485ZM24.0662 19.9485C23.0635 19.9485 22.2533 20.772 22.2533 21.788V28.9731C22.2533 29.9858 23.0668 30.8126 24.0662 30.8126C25.0689 30.8126 25.8791 29.9892 25.8791 28.9731V21.7847C25.8791 20.7687 25.0656 19.9485 24.0662 19.9485Z" fill="white"/>
<path d="M57.976 34.5L65.584 17.7H67.96L75.592 34.5H73.072L66.28 19.044H67.24L60.448 34.5H57.976ZM61.216 30.3L61.864 28.38H71.32L72.016 30.3H61.216ZM84.5541 21.66C85.5941 21.66 86.5061 21.86 87.2901 22.26C88.0901 22.66 88.7141 23.268 89.1621 24.084C89.6101 24.9 89.8341 25.932 89.8341 27.18V34.5H87.5301V27.444C87.5301 26.212 87.2261 25.284 86.6181 24.66C86.0261 24.036 85.1861 23.724 84.0981 23.724C83.2821 23.724 82.5701 23.884 81.9621 24.204C81.3541 24.524 80.8821 24.996 80.5461 25.62C80.2261 26.244 80.0661 27.02 80.0661 27.948V34.5H77.7621V21.78H79.9701V25.212L79.6101 24.3C80.0261 23.468 80.6661 22.82 81.5301 22.356C82.3941 21.892 83.4021 21.66 84.5541 21.66ZM99.3541 34.644C98.1221 34.644 97.0181 34.372 96.0421 33.828C95.0821 33.284 94.3221 32.524 93.7621 31.548C93.2021 30.572 92.9221 29.436 92.9221 28.14C92.9221 26.844 93.2021 25.716 93.7621 24.756C94.3221 23.78 95.0821 23.02 96.0421 22.476C97.0181 21.932 98.1221 21.66 99.3541 21.66C100.426 21.66 101.394 21.9 102.258 22.38C103.122 22.86 103.81 23.58 104.322 24.54C104.85 25.5 105.114 26.7 105.114 28.14C105.114 29.58 104.858 30.78 104.346 31.74C103.85 32.7 103.17 33.428 102.306 33.924C101.442 34.404 100.458 34.644 99.3541 34.644ZM99.5461 32.628C100.346 32.628 101.066 32.444 101.706 32.076C102.362 31.708 102.874 31.188 103.242 30.516C103.626 29.828 103.818 29.036 103.818 28.14C103.818 27.228 103.626 26.444 103.242 25.788C102.874 25.116 102.362 24.596 101.706 24.228C101.066 23.86 100.346 23.676 99.5461 23.676C98.7301 23.676 98.0021 23.86 97.3621 24.228C96.7221 24.596 96.2101 25.116 95.8261 25.788C95.4421 26.444 95.2501 27.228 95.2501 28.14C95.2501 29.036 95.4421 29.828 95.8261 30.516C96.2101 31.188 96.7221 31.708 97.3621 32.076C98.0021 32.444 98.7301 32.628 99.5461 32.628ZM103.89 34.5V31.068L104.034 28.116L103.794 25.164V16.692H106.098V34.5H103.89ZM110.457 34.5V21.78H112.665V25.236L112.449 24.372C112.801 23.492 113.393 22.82 114.225 22.356C115.057 21.892 116.081 21.66 117.297 21.66V23.892C117.201 23.876 117.105 23.868 117.009 23.868C116.929 23.868 116.849 23.868 116.769 23.868C115.537 23.868 114.561 24.236 113.841 24.972C113.121 25.708 112.761 26.772 112.761 28.164V34.5H110.457ZM125.468 34.644C124.188 34.644 123.052 34.364 122.06 33.804C121.068 33.244 120.284 32.476 119.708 31.5C119.132 30.508 118.844 29.388 118.844 28.14C118.844 26.876 119.132 25.756 119.708 24.78C120.284 23.804 121.068 23.044 122.06 22.5C123.052 21.94 124.188 21.66 125.468 21.66C126.732 21.66 127.86 21.94 128.852 22.5C129.86 23.044 130.644 23.804 131.204 24.78C131.78 25.74 132.068 26.86 132.068 28.14C132.068 29.404 131.78 30.524 131.204 31.5C130.644 32.476 129.86 33.244 128.852 33.804C127.86 34.364 126.732 34.644 125.468 34.644ZM125.468 32.628C126.284 32.628 127.012 32.444 127.652 32.076C128.308 31.708 128.82 31.188 129.188 30.516C129.556 29.828 129.74 29.036 129.74 28.14C129.74 27.228 129.556 26.444 129.188 25.788C128.82 25.116 128.308 24.596 127.652 24.228C127.012 23.86 126.284 23.676 125.468 23.676C124.652 23.676 123.924 23.86 123.284 24.228C122.644 24.596 122.132 25.116 121.748 25.788C121.364 26.444 121.172 27.228 121.172 28.14C121.172 29.036 121.364 29.828 121.748 30.516C122.132 31.188 122.644 31.708 123.284 32.076C123.924 32.444 124.652 32.628 125.468 32.628ZM135.254 34.5V21.78H137.558V34.5H135.254ZM136.406 19.332C135.958 19.332 135.582 19.188 135.278 18.9C134.99 18.612 134.846 18.26 134.846 17.844C134.846 17.412 134.99 17.052 135.278 16.764C135.582 16.476 135.958 16.332 136.406 16.332C136.854 16.332 137.222 16.476 137.51 16.764C137.814 17.036 137.966 17.38 137.966 17.796C137.966 18.228 137.822 18.596 137.534 18.9C137.246 19.188 136.87 19.332 136.406 19.332ZM147.213 34.644C145.981 34.644 144.877 34.372 143.901 33.828C142.941 33.284 142.181 32.524 141.621 31.548C141.061 30.572 140.781 29.436 140.781 28.14C140.781 26.844 141.061 25.716 141.621 24.756C142.181 23.78 142.941 23.02 143.901 22.476C144.877 21.932 145.981 21.66 147.213 21.66C148.285 21.66 149.253 21.9 150.117 22.38C150.981 22.86 151.669 23.58 152.181 24.54C152.709 25.5 152.973 26.7 152.973 28.14C152.973 29.58 152.717 30.78 152.205 31.74C151.709 32.7 151.029 33.428 150.165 33.924C149.301 34.404 148.317 34.644 147.213 34.644ZM147.405 32.628C148.205 32.628 148.925 32.444 149.565 32.076C150.221 31.708 150.733 31.188 151.101 30.516C151.485 29.828 151.677 29.036 151.677 28.14C151.677 27.228 151.485 26.444 151.101 25.788C150.733 25.116 150.221 24.596 149.565 24.228C148.925 23.86 148.205 23.676 147.405 23.676C146.589 23.676 145.861 23.86 145.221 24.228C144.581 24.596 144.069 25.116 143.685 25.788C143.301 26.444 143.109 27.228 143.109 28.14C143.109 29.036 143.301 29.828 143.685 30.516C144.069 31.188 144.581 31.708 145.221 32.076C145.861 32.444 146.589 32.628 147.405 32.628ZM151.749 34.5V31.068L151.893 28.116L151.653 25.164V16.692H153.957V34.5H151.749Z" fill="white"/>
</g>
<defs>
<filter id="filter0_d_6_154" x="0" y="0" width="175" height="53" filterUnits="userSpaceOnUse" color-interpolation-filters="sRGB">
<feFlood flood-opacity="0" result="BackgroundImageFix"/>
<feColorMatrix in="SourceAlpha" type="matrix" values="0 0 0 0 0 0 0 0 0 0 0 0 0 0 0 0 0 0 127 0" result="hardAlpha"/>
<feOffset dy="1"/>
<feGaussianBlur stdDeviation="1"/>
<feColorMatrix type="matrix" values="0 0 0 0 0.411765 0 0 0 0 0.317647 0 0 0 0 1 0 0 0 0.05 0"/>
<feBlend mode="normal" in2="BackgroundImageFix" result="effect1_dropShadow_6_154"/>
<feBlend mode="normal" in="SourceGraphic" in2="effect1_dropShadow_6_154" result="shape"/>
</filter>
</defs>
</svg>
