<svg width="48" height="48" viewBox="0 0 48 48" fill="none" xmlns="http://www.w3.org/2000/svg">
<path d="M15.4134 33.2697C15.9953 33.6794 16.6899 33.8985 17.4016 33.8967C18.1132 33.8949 18.8068 33.6724 19.3866 33.2598C19.974 32.8308 20.4195 32.2368 20.6637 31.5504L22.1388 27.0195C22.5164 25.8834 23.1535 24.8508 23.9995 24.0036C24.8455 23.1564 25.8772 22.518 27.0129 22.1388L31.6032 20.6538C32.2819 20.4081 32.8663 19.9557 33.2742 19.3602C33.6821 18.7647 33.8929 18.0563 33.8769 17.3347C33.8608 16.6131 33.6188 15.9147 33.1848 15.338C32.7509 14.7612 32.1469 14.3351 31.458 14.1198L26.9205 12.6414C25.7836 12.2645 24.7502 11.6277 23.9024 10.7816C23.0546 9.93553 22.4157 8.90345 22.0365 7.76733L20.5449 3.18693C20.3047 2.51212 19.8602 1.92895 19.2731 1.51855C18.6861 1.10815 17.9857 0.890929 17.2695 0.897101C16.5532 0.903272 15.8567 1.13253 15.2768 1.55299C14.6969 1.97344 14.2625 2.56418 14.034 3.24303L12.5259 7.86303C12.1482 8.96856 11.5241 9.97378 10.7009 10.8027C9.87765 11.6317 8.87678 12.2627 7.77389 12.648L3.18689 14.1231C2.51236 14.3638 1.9295 14.8086 1.51923 15.3956C1.10896 15.9826 0.891647 16.6828 0.897452 17.399C0.903257 18.1152 1.13189 18.8118 1.55162 19.3921C1.97135 19.9724 2.56134 20.4076 3.23969 20.6373L7.77389 22.1058C8.91555 22.4855 9.95234 23.1275 10.8011 23.9802C11.6498 24.833 12.2869 25.8728 12.6612 27.0162L14.1528 31.6065C14.3904 32.2797 14.8326 32.8605 15.4134 33.2697ZM15.6939 8.80023L17.433 4.25613L18.885 8.80023C19.4248 10.4273 20.3377 11.9055 21.5508 13.1168C22.7638 14.3281 24.2433 15.2389 25.8711 15.7764L30.5109 17.5254L25.9503 19.0005C24.3243 19.5429 22.847 20.4567 21.6355 21.6693C20.424 22.8819 19.5117 24.3601 18.9708 25.9866L17.2449 30.534L15.7632 25.9833C15.2312 24.3567 14.3272 22.8765 13.1232 21.6603C11.9064 20.4446 10.4244 19.5274 8.79359 18.9807L4.24619 17.2581L8.81999 15.7731C10.4259 15.2171 11.8825 14.2991 13.077 13.0902C14.2624 11.8765 15.1572 10.4097 15.6939 8.80023ZM35.6655 46.6083C36.0031 46.8456 36.3912 47.0012 36.7992 47.0626C37.2073 47.124 37.624 47.0897 38.0165 46.9623C38.409 46.8349 38.7664 46.6179 39.0606 46.3285C39.3547 46.0391 39.5775 45.6853 39.7113 45.2949L40.5297 42.7803C40.7059 42.2588 40.9994 41.7846 41.3877 41.3943C41.7771 40.9983 42.2523 40.7079 42.7737 40.5363L45.3213 39.7047C45.847 39.5233 46.302 39.1805 46.6213 38.7252C46.9407 38.2698 47.1081 37.7253 47.0997 37.1692C47.0913 36.6132 46.9074 36.074 46.5745 35.6285C46.2415 35.1831 45.7763 34.8542 45.2454 34.6887L42.7242 33.8637C42.2023 33.6902 41.7279 33.3978 41.3385 33.0095C40.949 32.6212 40.6552 32.1477 40.4802 31.6263L39.6486 29.0754C39.47 28.5508 39.1309 28.0956 38.6792 27.7745C38.2275 27.4533 37.6862 27.2825 37.132 27.2861C36.5778 27.2898 36.0388 27.4677 35.5914 27.7948C35.144 28.1219 34.8108 28.5815 34.6392 29.1084L33.8241 31.623C33.6561 32.1406 33.3705 32.6122 32.9898 33.0009C32.6091 33.3897 32.1435 33.685 31.6296 33.8637L29.0787 34.6953C28.5538 34.8732 28.0982 35.2118 27.7765 35.663C27.4548 36.1143 27.2832 36.6553 27.2861 37.2095C27.289 37.7637 27.4663 38.303 27.7928 38.7508C28.1192 39.1986 28.5784 39.5324 29.1051 39.7047L31.623 40.5198C32.151 40.698 32.6262 40.9917 33.0156 41.3811C33.4083 41.7738 33.6987 42.249 33.867 42.7737L34.7019 45.3279C34.8827 45.8443 35.2194 46.2917 35.6655 46.6083ZM32.6526 37.3914L32.0619 37.2L32.6691 36.9888C33.6674 36.638 34.5726 36.0642 35.316 35.3112C36.0593 34.5581 36.6213 33.6455 36.9591 32.6427L37.1505 32.0553L37.3485 32.6526C37.685 33.6643 38.2527 34.5835 39.0065 35.3374C39.7604 36.0913 40.6796 36.659 41.6913 36.9954L42.3348 37.2033L41.7408 37.4013C40.7269 37.7382 39.8058 38.3076 39.0512 39.0639C38.2965 39.8203 37.7293 40.7426 37.3947 41.7573L37.2 42.3546L37.0086 41.7606C36.6746 40.7429 36.1065 39.8178 35.3499 39.0595C34.5934 38.3013 33.6695 37.731 32.6526 37.3947V37.3914Z" fill="black"/>
</svg>
