<svg width="49" height="45" viewBox="0 0 49 45" fill="none" xmlns="http://www.w3.org/2000/svg">
<path d="M22.11 0.25C21.5033 0.25 20.8967 0.39 20.3133 0.6L3.14 7.71667C1.99845 8.18414 1.08926 9.08581 0.612329 10.2234C0.135398 11.3611 0.129764 12.6415 0.596667 13.7833L12.17 41.6667C12.5119 42.5124 13.0941 43.2394 13.8447 43.7578C14.5953 44.2761 15.4814 44.5632 16.3933 44.5833C17 44.5833 17.63 44.5133 18.2367 44.2333L35.4333 37.1167C36.2633 36.7644 36.9749 36.1815 37.4836 35.4371C37.9923 34.6926 38.2768 33.8179 38.3033 32.9167C38.3267 32.3333 38.21 31.6567 38 31.05L26.3333 3.16667C26.0035 2.31271 25.4243 1.57781 24.6711 1.05761C23.9178 0.537402 23.0254 0.255991 22.11 0.25ZM30.23 0.25L38.28 19.7333V4.91667C38.28 3.67899 37.7883 2.492 36.9132 1.61683C36.038 0.741665 34.851 0.25 33.6133 0.25M42.97 3.84333V24.9133L48.64 11.24C48.8725 10.6748 48.9911 10.0692 48.989 9.4581C48.9869 8.84696 48.8642 8.24223 48.6279 7.67861C48.3916 7.11499 48.0464 6.60356 47.612 6.17365C47.1777 5.74373 46.6627 5.4038 46.0967 5.17333M22.11 4.84667L33.73 32.8933L16.4867 40.0333L4.86667 12.01" fill="black"/>
</svg>
