<svg width="114" height="53" viewBox="0 0 114 53" fill="none" xmlns="http://www.w3.org/2000/svg">
<g filter="url(#filter0_d_6_158)">
<rect x="2" y="1" width="110" height="49" rx="24.5" fill="#9138FF"/>
<path d="M39.1666 26.1712C39.1553 24.2397 40.0304 22.7841 41.7976 21.7107C40.8092 20.2947 39.3139 19.5159 37.3428 19.3658C35.4765 19.2186 33.4346 20.4533 32.6869 20.4533C31.8968 20.4533 30.0899 19.4168 28.6683 19.4168C25.7343 19.4621 22.6162 21.7561 22.6162 26.4232C22.6162 27.8024 22.8683 29.227 23.3724 30.6939C24.0464 32.6254 26.4763 37.3577 29.0109 37.2813C30.3363 37.2501 31.2737 36.341 32.9984 36.341C34.6722 36.341 35.5388 37.2813 37.0171 37.2813C39.5744 37.2444 41.7721 32.9426 42.4121 31.0055C38.9825 29.3884 39.1666 26.2703 39.1666 26.1712ZM36.1901 17.5335C37.626 15.8286 37.4957 14.2767 37.4532 13.7188C36.1845 13.7924 34.7175 14.5825 33.882 15.5539C32.9616 16.5961 32.4207 17.8847 32.5368 19.3375C33.9075 19.4423 35.1593 18.7371 36.1901 17.5335Z" fill="white"/>
<path d="M55.52 34.5V17.7H57.92V34.5H55.52ZM70.5337 34.692C69.2537 34.692 68.0617 34.476 66.9577 34.044C65.8697 33.612 64.9257 33.012 64.1257 32.244C63.3257 31.46 62.7017 30.548 62.2537 29.508C61.8057 28.468 61.5817 27.332 61.5817 26.1C61.5817 24.868 61.8057 23.732 62.2537 22.692C62.7017 21.652 63.3257 20.748 64.1257 19.98C64.9257 19.196 65.8697 18.588 66.9577 18.156C68.0457 17.724 69.2377 17.508 70.5337 17.508C71.8137 17.508 72.9897 17.724 74.0617 18.156C75.1497 18.572 76.0937 19.172 76.8937 19.956C77.7097 20.724 78.3337 21.628 78.7657 22.668C79.2137 23.708 79.4377 24.852 79.4377 26.1C79.4377 27.348 79.2137 28.492 78.7657 29.532C78.3337 30.572 77.7097 31.484 76.8937 32.268C76.0937 33.036 75.1497 33.636 74.0617 34.068C72.9897 34.484 71.8137 34.692 70.5337 34.692ZM70.5337 32.556C71.4617 32.556 72.3177 32.396 73.1017 32.076C73.9017 31.756 74.5897 31.308 75.1657 30.732C75.7577 30.14 76.2137 29.452 76.5337 28.668C76.8697 27.884 77.0377 27.028 77.0377 26.1C77.0377 25.172 76.8697 24.316 76.5337 23.532C76.2137 22.748 75.7577 22.068 75.1657 21.492C74.5897 20.9 73.9017 20.444 73.1017 20.124C72.3177 19.804 71.4617 19.644 70.5337 19.644C69.5897 19.644 68.7177 19.804 67.9177 20.124C67.1337 20.444 66.4457 20.9 65.8537 21.492C65.2617 22.068 64.7977 22.748 64.4617 23.532C64.1417 24.316 63.9817 25.172 63.9817 26.1C63.9817 27.028 64.1417 27.884 64.4617 28.668C64.7977 29.452 65.2617 30.14 65.8537 30.732C66.4457 31.308 67.1337 31.756 67.9177 32.076C68.7177 32.396 69.5897 32.556 70.5337 32.556ZM88.0019 34.692C86.7219 34.692 85.4979 34.5 84.3299 34.116C83.1619 33.716 82.2419 33.204 81.5699 32.58L82.4579 30.708C83.0979 31.268 83.9139 31.732 84.9059 32.1C85.8979 32.468 86.9299 32.652 88.0019 32.652C88.9779 32.652 89.7699 32.54 90.3779 32.316C90.9859 32.092 91.4339 31.788 91.7219 31.404C92.0099 31.004 92.1539 30.556 92.1539 30.06C92.1539 29.484 91.9619 29.02 91.5779 28.668C91.2099 28.316 90.7219 28.036 90.1139 27.828C89.5219 27.604 88.8659 27.412 88.1459 27.252C87.4259 27.092 86.6979 26.908 85.9619 26.7C85.2419 26.476 84.5779 26.196 83.9699 25.86C83.3779 25.524 82.8979 25.076 82.5299 24.516C82.1619 23.94 81.9779 23.204 81.9779 22.308C81.9779 21.444 82.2019 20.652 82.6499 19.932C83.1139 19.196 83.8179 18.612 84.7619 18.18C85.7219 17.732 86.9379 17.508 88.4099 17.508C89.3859 17.508 90.3539 17.636 91.3139 17.892C92.2739 18.148 93.1059 18.516 93.8099 18.996L93.0179 20.916C92.2979 20.436 91.5379 20.092 90.7379 19.884C89.9379 19.66 89.1619 19.548 88.4099 19.548C87.4659 19.548 86.6899 19.668 86.0819 19.908C85.4739 20.148 85.0259 20.468 84.7379 20.868C84.4659 21.268 84.3299 21.716 84.3299 22.212C84.3299 22.804 84.5139 23.276 84.8819 23.628C85.2659 23.98 85.7539 24.26 86.3459 24.468C86.9539 24.676 87.6179 24.868 88.3379 25.044C89.0579 25.204 89.7779 25.388 90.4979 25.596C91.2339 25.804 91.8979 26.076 92.4899 26.412C93.0979 26.748 93.5859 27.196 93.9539 27.756C94.3219 28.316 94.5059 29.036 94.5059 29.916C94.5059 30.764 94.2739 31.556 93.8099 32.292C93.3459 33.012 92.6259 33.596 91.6499 34.044C90.6899 34.476 89.4739 34.692 88.0019 34.692Z" fill="white"/>
</g>
<defs>
<filter id="filter0_d_6_158" x="0" y="0" width="114" height="53" filterUnits="userSpaceOnUse" color-interpolation-filters="sRGB">
<feFlood flood-opacity="0" result="BackgroundImageFix"/>
<feColorMatrix in="SourceAlpha" type="matrix" values="0 0 0 0 0 0 0 0 0 0 0 0 0 0 0 0 0 0 127 0" result="hardAlpha"/>
<feOffset dy="1"/>
<feGaussianBlur stdDeviation="1"/>
<feColorMatrix type="matrix" values="0 0 0 0 0.411765 0 0 0 0 0.317647 0 0 0 0 1 0 0 0 0.05 0"/>
<feBlend mode="normal" in2="BackgroundImageFix" result="effect1_dropShadow_6_158"/>
<feBlend mode="normal" in="SourceGraphic" in2="effect1_dropShadow_6_158" result="shape"/>
</filter>
</defs>
</svg>
