<?xml version="1.0" encoding="utf-8"?>
<!-- Generator: Adobe Illustrator 24.3.0, SVG Export Plug-In . SVG Version: 6.00 Build 0)  -->
<svg version="1.1" id="Layer_1" xmlns="http://www.w3.org/2000/svg" xmlns:xlink="http://www.w3.org/1999/xlink" x="0px" y="0px"
	 viewBox="0 0 1000 1000" style="enable-background:new 0 0 1000 1000;" xml:space="preserve">
<style type="text/css">
	.st0{display:none;}
	.st1{display:inline;}
	.st2{fill:none;stroke:#774394;stroke-width:75;stroke-miterlimit:10;}
	.st3{fill:none;stroke:#FFFFFF;stroke-width:35;stroke-miterlimit:10;}
	.st4{fill:#774393;}
	.st5{fill:#FFFFFF;}
</style>
<g id="Layer_1_1_" class="st0">
	<g class="st1">
		<circle class="st2" cx="500" cy="500" r="203.7"/>
		<circle class="st3" cx="500" cy="500" r="203.7"/>
		<circle class="st4" cx="500" cy="500" r="203.7"/>
	</g>
</g>
<g id="Layer_3" class="st0">
</g>
<g id="Layer_5">
	<g id="Layer_2_1_">
		<path class="st4" d="M150.6,571.8c0,0,179.1-86.6,249.3-43.3c70.1,43.3,58.2,97,58.2,97s52.2-83.6,149.3-62.7
			s217.9,140.3,217.9,140.3S677.5,855.4,437.2,824c0,0-256.3-52.5-301.5-246.3L150.6,571.8z"/>
		<path class="st5" d="M292,630.6l65.3-11.9c10.9-2,22.2,1.6,29.7,9.8c18.3,19.8,61.8,51.4,137.2,21.3c9.5-3.8,20.2-3,29,2.4
			l77.4,47.3C630.5,699.6,414.1,775.4,292,630.6z"/>
	</g>
	<g>
		<path d="M571.4,682.9c-14.5-1-27.5,14.3-31.2,35.3c3.4-0.4,8.6-0.7,13-0.1c0.2,0,0.3,0.1,0.5,0.1c2.8-12.4,9.5-21,16.7-20.4
			c8.7,0.6,14.8,14.5,13.5,31c-1.2,16.5-9.2,29.3-17.9,28.7c-4.3-0.3-8-3.8-10.4-9.3c-0.3-0.5-0.9-0.8-1.5-0.7L545,750
			c-1.3,0.4-2,1.8-1.5,3c4.5,10.6,12.2,17.6,21.3,18.3c15.9,1.1,30.3-17.7,32.1-42.1C598.9,704.7,587.4,684,571.4,682.9z"/>
	</g>
	<g id="Layer_4">
		<polygon points="462.6,157.8 479.7,229.2 551.9,226.3 539.3,280.5 434,401.5 445.7,417 530.2,447.1 528.3,455.2 621.8,450.9 
			623.8,364 644.2,317.2 603,182.8 505.1,198.2 		"/>
		<polygon points="465,440.5 460.9,480.3 501.2,493.5 509.2,459.1 		"/>
		<path d="M398.1,435.3l45.4,36.4l0.5,28.6l65,15.1l7.5-18.3c0,0,64.4,12.4,108.7-5.8c0,0,112.4,44.9,113.4,57.4
			c0,0-78.4,70.4-264.8,32.2c0,0-153.4-46.6-198.3-145.6C275.5,435.2,282.2,423.9,398.1,435.3z"/>
	</g>
</g>
</svg>
