<?xml version="1.0" encoding="utf-8"?>
<!-- Generator: Adobe Illustrator 24.3.0, SVG Export Plug-In . SVG Version: 6.00 Build 0)  -->
<svg version="1.1" id="Layer_1" xmlns="http://www.w3.org/2000/svg" xmlns:xlink="http://www.w3.org/1999/xlink" x="0px" y="0px"
	 viewBox="0 0 1000 1000" style="enable-background:new 0 0 1000 1000;" xml:space="preserve">
<style type="text/css">
	.st0{fill:#48469C;}
	.st1{fill:#886CB0;}
</style>
<g id="Layer_4">
	<path class="st0" d="M480.96,119.25c-209.64,0-380.18,170.54-380.18,380.18c-0.08,60.73,14.48,120.58,42.45,174.48
		c25.02,62.1,71.37,113.24,130.7,144.25c61.55,40.19,133.49,61.55,207,61.46c209.62,0,380.18-170.57,380.18-380.19
		S690.6,119.25,480.96,119.25z M566.62,797.73c73.84-52.62,117.65-137.71,117.58-228.37c0-154.96-125.61-280.54-280.55-280.54
		c-80.79-0.09-157.68,34.73-210.9,95.51c45.85-114.3,157.75-195.2,288.2-195.2c171.1,0,310.31,139.21,310.32,310.32
		C791.28,640.84,696.2,760.47,566.62,797.73L566.62,797.73z"/>
</g>
<g id="Layer_2_1_">
	<g id="Layer_4_copy">
		<path class="st1" d="M155.62,604.09c72.5-65.54,178.39-135.58,298.19-197.2c30.99-15.95,61.89-30.8,92.33-44.44
			c-15.83-10.31-31.42-20.98-46.42-32.4c-10.57-4.2-20.99-8.75-31.29-13.32c-16.16,7.73-32.37,15.78-48.63,24.14
			c-125.35,64.52-236.92,138.47-313.99,208.16C14.77,631.33-18.24,698.58,7.67,748.96c17.06,33.14,54.92,49.77,112.99,49.77
			c30.13,0,65.7-4.48,106.72-13.45c73.29-16.05,158.78-45.47,247.79-84.82c18.55-8.26,26.89-30,18.63-48.55
			c-0.76-1.71-1.65-3.36-2.66-4.93l-0.42-0.68c-9.72-15.19-29.08-21-45.56-13.69c-84.36,37.3-164.95,65.13-233.54,80.17
			c-103.19,22.61-135.71,6.35-137.85,2.22S77.26,675.01,155.62,604.09z"/>
		<path class="st1" d="M991.44,242.59c-25.92-50.34-99.83-62.57-219.72-36.3c-28.61,6.27-59.12,14.63-90.92,24.75
			c21.68,17.65,42.82,36.81,57.6,60.16c16.94-4.77,33.42-8.96,49.19-12.41c40.39-8.85,69.95-11.74,91.1-11.74
			c32.87,0,45.45,7,46.75,9.52c2.14,4.11-3.55,40.04-81.91,110.93c-33.77,30.54-74.86,62.05-121.18,93.23
			c-16.8,11.31-21.27,34.08-10,50.9l0.41,0.62c11.36,16.84,34.21,21.28,51.05,9.93c49.3-33.2,93.25-66.88,129.48-99.66
			C984.35,360.2,1017.35,292.93,991.44,242.59z"/>
		<g id="Layer_1_copy">
			<path class="st1" d="M582.62,572.06l-62.16,10.96l-51.08-37.07c-16.34-11.86-38.8,2.19-35.29,22.08l10.96,62.16l-37.07,51.08
				c-11.86,16.34,2.19,38.8,22.08,35.29l62.16-10.96l51.08,37.07c16.34,11.86,38.8-2.19,35.29-22.08l-10.96-62.16l37.04-51.08
				C616.54,591.01,602.49,568.55,582.62,572.06z"/>
		</g>
	</g>
</g>
<g id="Layer_3">
	<path class="st0" d="M483.15,122.97c-209.64,0-380.18,170.55-380.18,380.18c-0.05,51.66,10.48,102.78,30.96,150.2l1.63-1.25
		c0.55,1.81,1.12,3.59,1.71,5.38c35-6.42,70.71-9.67,105.96-13.16l5.27-0.55c39.65-17.8,81.22-31.39,123.44-42.33
		c0.3-2.14,0.99-4.22,2.04-6.11c-4.34-6.59-5.18-15.63,1.37-23.19c34.78-39.95,87.65-53.41,138.32-59.31
		c11.15-1.37,16.95,6.22,17.58,14.83c48.75-7.76,98.86-6.59,148.85-5.48c-22.4-132.47-137.62-233.37-276.48-233.37
		c-77.09-0.11-150.81,31.6-203.75,87.65c48.53-108.19,157.26-183.69,283.29-183.69c105.68,0,199.15,53.15,255.21,134.08
		c20.8-10.79,41.71-21.4,62.23-32.72C732.52,191.12,615.62,122.97,483.15,122.97z"/>
</g>
</svg>
