<?xml version="1.0" encoding="utf-8"?>
<!-- Generator: Adobe Illustrator 24.3.0, SVG Export Plug-In . SVG Version: 6.00 Build 0)  -->
<svg version="1.1" xmlns="http://www.w3.org/2000/svg" xmlns:xlink="http://www.w3.org/1999/xlink" x="0px" y="0px"
	 viewBox="0 0 1000 1000" style="enable-background:new 0 0 1000 1000;" xml:space="preserve">
<style type="text/css">
	.st0{display:none;}
	.st1{display:inline;}
	.st2{fill:none;stroke:#774394;stroke-width:75;stroke-miterlimit:10;}
	.st3{fill:none;stroke:#FFFFFF;stroke-width:35;stroke-miterlimit:10;}
	.st4{fill:#774393;}
	.st5{fill:#E5E5E5;}
	.st6{fill:#FFFFFF;}
</style>
<g id="Layer_1" class="st0">
	<g class="st1">
		<circle class="st2" cx="500" cy="500" r="203.7"/>
		<circle class="st3" cx="500" cy="500" r="203.7"/>
		<circle class="st4" cx="500" cy="500" r="203.7"/>
	</g>
</g>
<g id="Layer_3" class="st0">
</g>
<g id="Layer_5">
	<g id="Layer_2">
		<path class="st4" d="M150.6,571.8c0,0,179.1-86.6,249.3-43.3c70.1,43.3,58.2,97,58.2,97s52.2-83.6,149.3-62.7
			s217.9,140.3,217.9,140.3S677.5,855.4,437.2,824c0,0-256.3-52.5-301.5-246.3L150.6,571.8z"/>
		<g>
			<path class="st5" d="M645.6,758c-13.6-5-30.4,6.1-39.8,25.2c3.4,0.6,8.5,1.7,12.5,3.5c0.2,0.1,0.3,0.2,0.5,0.2
				c6.1-11.1,15-17.5,21.7-15c8.2,3,10.2,18,4.4,33.5c-5.7,15.5-17,25.6-25.2,22.6c-4-1.5-6.6-5.9-7.4-11.8c-0.1-0.6-0.6-1-1.2-1.1
				l-9.4-0.1c-1.4,0-2.4,1.2-2.3,2.5c1.4,11.4,6.8,20.3,15.4,23.5c15,5.5,34-8.6,42.5-31.5C665.9,786.6,660.6,763.5,645.6,758z"/>
		</g>
		<path class="st6" d="M292,630.6l84.7-15.4c0,0,47.3,83.3,162,28.2l91.8,56.1C630.5,699.6,414.1,775.4,292,630.6z"/>
	</g>
	<g id="Layer_4">
		<polygon points="462.6,157.8 479.7,229.2 551.9,226.3 539.3,280.5 434,401.5 445.7,417 530.2,447.1 528.3,455.2 621.8,450.9 
			623.8,364 644.2,317.2 603,182.8 505.1,198.2 		"/>
		<polygon points="465,440.5 460.9,480.3 501.2,493.5 509.2,459.1 		"/>
		<path d="M398.1,435.3l45.4,36.4l0.5,28.6l65,15.1l7.5-18.3c0,0,64.4,12.4,108.7-5.8c0,0,112.4,44.9,113.4,57.4
			c0,0-78.4,70.4-264.8,32.2c0,0-153.4-46.6-198.3-145.6C275.5,435.2,282.2,423.9,398.1,435.3z"/>
	</g>
</g>
</svg>
